<svg version="1.1" id="Layer_1" xmlns="http://www.w3.org/2000/svg" xmlns:xlink="http://www.w3.org/1999/xlink" x="0px" y="0px"
	 width="100%" viewBox="0 0 150 74" enable-background="new 0 0 150 74" xml:space="preserve">
<path fill="#FBFAED" opacity="1.000000" stroke="none" 
	d="
M150.000000,75.000000 
	C100.391800,75.000000 50.783600,75.000000 1.087701,75.000000 
	C1.087701,50.421116 1.087701,25.841814 1.087701,1.000000 
	C50.353916,1.000000 99.708298,1.000000 149.639572,1.220609 
	C150.401291,1.734543 150.662460,1.920803 151.000000,2.000000 
	C151.000000,25.687561 151.000000,49.375122 150.775421,73.630913 
	C150.288513,74.411957 150.104904,74.678909 150.000000,75.000000 
M51.309769,45.082264 
	C51.526043,45.394485 51.742317,45.706707 52.837894,46.270679 
	C53.101414,50.762234 53.364937,55.253792 53.629364,59.760811 
	C55.868519,59.666111 55.868519,59.666111 56.922569,54.121788 
	C58.029968,55.260956 59.644089,56.216042 60.138794,57.577789 
	C61.154194,60.372826 62.583496,61.616325 64.730148,60.998768 
	C64.335793,57.706711 63.901768,54.745834 63.652832,51.769478 
	C63.490444,49.827938 64.366936,46.896965 63.406193,46.131855 
	C61.885475,44.920799 59.215057,45.153423 56.166378,44.893272 
	C54.712158,44.905220 53.257938,44.917168 51.309769,45.082264 
M93.915504,10.362700 
	C93.907181,8.615869 94.223152,6.786129 93.803452,5.144467 
	C93.341957,3.339338 92.173805,2.070288 90.116951,4.991604 
	C82.894875,4.624036 75.664871,3.890817 68.454147,4.047109 
	C64.982109,4.122365 61.546406,5.874593 58.058517,7.617522 
	C58.069908,8.118048 58.081295,8.618574 58.037487,10.039804 
	C58.036125,18.324453 58.072670,26.609388 58.009850,34.893570 
	C57.991470,37.317097 58.221710,39.038956 61.395138,38.995182 
	C71.003494,38.862652 80.616997,39.039612 90.221954,38.815666 
	C91.277092,38.791065 92.289902,36.951393 93.596626,35.114063 
	C93.505241,31.093761 93.413857,27.073458 93.558205,22.342943 
	C93.480202,21.856689 93.402206,21.370434 93.603386,20.041822 
	C93.647926,17.102749 93.692467,14.163676 93.915504,10.362700 
M87.980614,50.030651 
	C85.849800,49.800152 83.718987,49.569653 81.015923,49.277252 
	C83.169189,50.721794 84.586792,51.672802 86.004387,52.623817 
	C84.703430,53.565052 83.345566,54.438633 82.119934,55.469440 
	C81.179810,56.260132 80.406479,57.249153 78.457718,59.320484 
	C83.013664,59.921093 86.436295,60.372299 89.672722,60.798958 
	C89.166756,56.994434 88.747963,53.845432 87.980614,50.030651 
M107.688690,54.479160 
	C108.428879,52.755943 109.169075,51.032730 109.958321,49.195309 
	C109.334267,48.646469 107.861687,47.351391 105.177864,44.991066 
	C105.133171,49.226570 105.000717,52.674362 105.083725,56.116962 
	C105.198746,60.887753 106.652824,61.604939 110.269775,59.817974 
	C109.392578,58.308750 108.540985,56.843582 107.688690,54.479160 
M72.482903,60.714287 
	C72.687462,60.161064 73.229416,59.328671 73.040825,59.100754 
	C71.964111,57.799488 70.713455,56.642147 69.303787,55.215122 
	C71.990074,54.052494 73.625053,53.344872 75.260033,52.637249 
	C75.279793,52.145760 75.299545,51.654270 75.319305,51.162777 
	C73.660683,50.583790 71.550148,49.103966 70.457062,49.652317 
	C69.069939,50.348167 68.003334,52.603077 67.703247,54.341850 
	C67.181885,57.362835 68.146347,59.979515 72.482903,60.714287 
M94.467918,60.053555 
	C96.370888,60.053555 98.273857,60.053555 100.176826,60.053555 
	C94.595596,58.417400 94.169022,57.488567 95.758492,49.536991 
	C91.591057,51.995033 91.176888,54.219284 94.467918,60.053555 
M58.141850,70.101822 
	C58.600288,70.030777 59.058727,69.959740 59.517166,69.888695 
	C59.476971,69.655495 59.436771,69.422295 59.396576,69.189095 
	C59.006718,69.300140 58.616863,69.411186 58.141850,70.101822 
z"/>
<path fill="#E5E4D9" opacity="1.000000" stroke="none" 
	d="
M150.500000,75.000000 
	C150.104904,74.678909 150.288513,74.411957 150.775421,74.099571 
	C151.000000,74.333336 151.000000,74.666664 150.500000,75.000000 
z"/>
<path fill="#E5E4D9" opacity="1.000000" stroke="none" 
	d="
M151.000000,1.500000 
	C150.662460,1.920803 150.401291,1.734543 150.108231,1.220609 
	C150.333328,1.000000 150.666672,1.000000 151.000000,1.500000 
z"/>
<path fill="#84ACCA" opacity="1.000000" stroke="none" 
	d="
M93.322350,35.953560 
	C92.289902,36.951393 91.277092,38.791065 90.221954,38.815666 
	C80.616997,39.039612 71.003494,38.862652 61.395138,38.995182 
	C58.221710,39.038956 57.991470,37.317097 58.009850,34.893570 
	C58.072670,26.609388 58.036125,18.324453 58.385590,9.541579 
	C59.163200,9.061196 59.592709,9.079039 60.009407,9.330019 
	C59.996601,9.563159 59.996464,10.030142 59.998466,10.397866 
	C59.630955,15.772720 62.793274,12.236847 64.598846,12.418134 
	C64.848328,14.083911 65.081375,15.639990 65.434807,17.999868 
	C69.290657,11.977166 74.787231,14.391607 79.623352,14.168590 
	C80.370445,14.134137 81.205582,16.008942 81.775024,17.193504 
	C81.773506,17.868128 81.996956,18.350039 82.220398,18.831951 
	C82.811272,18.223255 83.402145,17.614557 84.338066,17.038193 
	C85.787155,17.380428 86.891205,17.690332 87.992493,18.327513 
	C87.299789,19.644402 86.609833,20.634012 86.715469,20.482498 
	C87.351906,22.548239 87.733994,23.788420 87.735840,25.059494 
	C85.896202,26.147551 83.505363,26.958393 83.148682,28.307165 
	C81.988701,32.693577 78.755318,29.975231 76.625839,30.454311 
	C75.650452,30.673746 74.222046,28.879503 73.001457,27.749146 
	C73.003830,27.499815 73.008530,27.001118 73.395279,26.987312 
	C77.328384,25.617828 76.295609,23.333849 74.954102,20.700865 
	C74.510048,20.093546 74.105820,19.780722 73.701599,19.467897 
	C73.467827,19.978546 73.234062,20.489195 72.686264,21.029297 
	C71.884300,21.418663 71.396362,21.778574 70.662468,21.917356 
	C70.252846,20.838947 70.089172,19.981667 70.063957,19.046429 
	C70.093483,19.003704 69.984558,19.038940 69.456779,19.123245 
	C66.115105,18.624716 64.480850,19.605927 64.907372,22.802950 
	C65.187141,24.899889 65.621674,26.976181 65.830429,29.405014 
	C65.284340,31.329935 64.894714,32.911564 64.446968,34.729126 
	C62.998375,34.729126 61.651234,34.729126 60.304089,34.729126 
	C60.818962,36.096565 61.652184,36.914764 62.492218,36.921818 
	C69.316978,36.979149 76.144768,36.960075 82.967850,36.801598 
	C85.980873,36.731625 88.985146,36.285023 92.216537,36.004436 
	C92.733490,35.976357 93.027718,35.961052 93.322350,35.953560 
z"/>
<path fill="#85ACCA" opacity="1.000000" stroke="none" 
	d="
M87.995255,18.000237 
	C86.891205,17.690332 85.787155,17.380428 84.005997,17.036461 
	C82.885925,17.001863 82.442963,17.001328 82.000000,17.000793 
	C81.205582,16.008942 80.370445,14.134137 79.623352,14.168590 
	C74.787231,14.391607 69.290657,11.977166 65.434807,17.999868 
	C65.081375,15.639990 64.848328,14.083911 64.598846,12.418134 
	C62.793274,12.236847 59.630955,15.772720 60.467453,10.387841 
	C69.346519,10.007839 77.772316,10.293552 86.165459,9.893795 
	C91.088089,9.659332 92.590836,11.403256 92.097954,16.053558 
	C91.933723,17.603035 92.883629,19.270597 93.324211,20.884178 
	C93.402206,21.370434 93.480202,21.856689 93.177925,22.689796 
	C92.442444,23.039543 92.087242,23.042435 91.402802,22.870647 
	C90.314285,19.797714 89.555016,16.899458 88.795746,14.001202 
	C88.429985,14.113537 88.064232,14.225873 87.698471,14.338208 
	C87.797401,15.558885 87.896324,16.779562 87.995255,18.000237 
z"/>
<path fill="#74A3C7" opacity="1.000000" stroke="none" 
	d="
M58.094246,6.867439 
	C61.546406,5.874593 64.982109,4.122365 68.454147,4.047109 
	C75.664871,3.890817 82.894875,4.624036 90.852020,5.096682 
	C90.966469,5.780478 90.349663,6.858724 89.724655,6.863498 
	C79.181793,6.944032 68.637909,6.890929 58.094246,6.867439 
z"/>
<path fill="#505050" opacity="1.000000" stroke="none" 
	d="
M88.154892,50.363541 
	C88.747963,53.845432 89.166756,56.994434 89.672722,60.798958 
	C86.436295,60.372299 83.013664,59.921093 78.457718,59.320484 
	C80.406479,57.249153 81.179810,56.260132 82.119934,55.469440 
	C83.345566,54.438633 84.703430,53.565052 86.004387,52.623817 
	C84.586792,51.672802 83.169189,50.721794 81.015923,49.277252 
	C83.718987,49.569653 85.849800,49.800152 88.154892,50.363541 
M82.748154,56.529999 
	C82.521515,56.507977 82.294884,56.485954 82.068245,56.463928 
	C82.171577,56.577385 82.274918,56.690842 82.748154,56.529999 
z"/>
<path fill="#D4DEE1" opacity="1.000000" stroke="none" 
	d="
M58.076382,7.242480 
	C68.637909,6.890929 79.181793,6.944032 89.724655,6.863498 
	C90.349663,6.858724 90.966469,5.780478 91.273651,5.042003 
	C92.173805,2.070288 93.341957,3.339338 93.803452,5.144467 
	C94.223152,6.786129 93.907181,8.615869 93.606674,10.461856 
	C91.898018,10.048085 90.502899,9.106643 89.097626,9.091233 
	C79.407005,8.984976 69.714272,9.071999 60.022217,9.096880 
	C59.592709,9.079039 59.163200,9.061196 58.413189,9.081227 
	C58.081295,8.618574 58.069908,8.118048 58.076382,7.242480 
z"/>
<path fill="#CAC9C1" opacity="1.000000" stroke="none" 
	d="
M57.031139,44.775150 
	C59.215057,45.153423 61.885475,44.920799 63.406193,46.131855 
	C64.366936,46.896965 63.490444,49.827938 63.652832,51.769478 
	C63.901768,54.745834 64.335793,57.706711 64.730148,60.998768 
	C62.583496,61.616325 61.154194,60.372826 60.138794,57.577789 
	C59.644089,56.216042 58.029968,55.260956 56.535477,53.737888 
	C56.183704,52.882141 56.219025,52.410297 56.614876,51.916756 
	C58.576942,50.715721 60.178486,49.536377 61.780025,48.357033 
	C61.535576,47.911129 61.291122,47.465229 61.046673,47.019325 
	C59.676270,46.661224 58.305870,46.303120 56.991707,45.655193 
	C57.042339,45.168629 57.036739,44.971889 57.031139,44.775150 
z"/>
<path fill="#383839" opacity="1.000000" stroke="none" 
	d="
M107.689041,54.928787 
	C108.540985,56.843582 109.392578,58.308750 110.269775,59.817974 
	C106.652824,61.604939 105.198746,60.887753 105.083725,56.116962 
	C105.000717,52.674362 105.133171,49.226570 105.177864,44.991066 
	C107.861687,47.351391 109.334267,48.646469 109.958321,49.195309 
	C109.169075,51.032730 108.428879,52.755943 107.689041,54.928787 
z"/>
<path fill="#202025" opacity="1.000000" stroke="none" 
	d="
M72.116119,60.661217 
	C68.146347,59.979515 67.181885,57.362835 67.703247,54.341850 
	C68.003334,52.603077 69.069939,50.348167 70.457062,49.652317 
	C71.550148,49.103966 73.660683,50.583790 75.319305,51.162777 
	C75.299545,51.654270 75.279793,52.145760 75.260033,52.637249 
	C73.625053,53.344872 71.990074,54.052494 69.303787,55.215122 
	C70.713455,56.642147 71.964111,57.799488 73.040825,59.100754 
	C73.229416,59.328671 72.687462,60.161064 72.116119,60.661217 
z"/>
<path fill="#72A2C6" opacity="1.000000" stroke="none" 
	d="
M60.009407,9.330020 
	C69.714272,9.071999 79.407005,8.984976 89.097626,9.091233 
	C90.502899,9.106643 91.898018,10.048085 93.517426,10.892807 
	C93.692467,14.163676 93.647926,17.102749 93.463799,20.463001 
	C92.883629,19.270597 91.933723,17.603035 92.097954,16.053558 
	C92.590836,11.403256 91.088089,9.659332 86.165459,9.893795 
	C77.772316,10.293552 69.346519,10.007839 60.465454,10.020117 
	C59.996464,10.030142 59.996601,9.563159 60.009407,9.330020 
z"/>
<path fill="#0A0B12" opacity="1.000000" stroke="none" 
	d="
M56.598759,44.834213 
	C57.036739,44.971889 57.042339,45.168629 57.004749,45.672150 
	C56.961555,45.978928 56.959076,45.939545 56.657513,45.947159 
	C56.283672,46.310379 56.211391,46.665981 56.093868,47.431290 
	C56.117195,49.206814 56.185772,50.572632 56.254349,51.938450 
	C56.219025,52.410297 56.183704,52.882141 56.204891,53.705090 
	C55.868519,59.666111 55.868519,59.666111 53.629364,59.760811 
	C53.364937,55.253792 53.101414,50.762234 52.264690,45.885826 
	C51.728901,45.310352 51.766312,45.119732 51.803719,44.929111 
	C53.257938,44.917168 54.712158,44.905220 56.598759,44.834213 
z"/>
<path fill="#252528" opacity="1.000000" stroke="none" 
	d="
M94.179436,59.809959 
	C91.176888,54.219284 91.591057,51.995033 95.758492,49.536991 
	C94.169022,57.488567 94.595596,58.417400 100.176826,60.053555 
	C98.273857,60.053555 96.370888,60.053555 94.179436,59.809959 
z"/>
<path fill="#72A2C6" opacity="1.000000" stroke="none" 
	d="
M91.732040,23.045326 
	C92.087242,23.042435 92.442444,23.039543 93.060059,23.044903 
	C93.413857,27.073458 93.505241,31.093761 93.459488,35.533813 
	C93.027718,35.961052 92.733490,35.976357 92.219139,35.556503 
	C91.384232,32.064789 90.769867,29.016043 90.242622,25.683250 
	C90.797180,24.614578 91.264610,23.829952 91.732040,23.045326 
z"/>
<path fill="#8F8E8A" opacity="1.000000" stroke="none" 
	d="
M58.184425,69.812027 
	C58.616863,69.411186 59.006718,69.300140 59.396576,69.189095 
	C59.436771,69.422295 59.476971,69.655495 59.517166,69.888695 
	C59.058727,69.959740 58.600288,70.030777 58.184425,69.812027 
z"/>
<path fill="#CAC9C1" opacity="1.000000" stroke="none" 
	d="
M51.556744,45.005688 
	C51.766312,45.119732 51.728901,45.310352 51.825035,45.759953 
	C51.742317,45.706707 51.526043,45.394485 51.556744,45.005688 
z"/>
<path fill="#85ACCA" opacity="1.000000" stroke="none" 
	d="
M90.155502,25.967297 
	C90.769867,29.016043 91.384232,32.064789 91.996002,35.561470 
	C88.985146,36.285023 85.980873,36.731625 82.967850,36.801598 
	C76.144768,36.960075 69.316978,36.979149 62.492218,36.921818 
	C61.652184,36.914764 60.818962,36.096565 60.304089,34.729126 
	C61.651234,34.729126 62.998375,34.729126 64.446968,34.729126 
	C64.894714,32.911564 65.284340,31.329935 66.144852,29.511429 
	C68.092186,28.850916 69.568619,28.427279 71.370300,28.002041 
	C72.130058,27.999786 72.564575,27.999130 72.999084,27.998474 
	C74.222046,28.879503 75.650452,30.673746 76.625839,30.454311 
	C78.755318,29.975231 81.988701,32.693577 83.148682,28.307165 
	C83.505363,26.958393 85.896202,26.147551 87.720360,25.477520 
	C88.085129,28.147404 88.085129,30.430155 88.085129,32.712906 
	C88.507957,32.750233 88.930779,32.787556 89.353607,32.824883 
	C89.620903,30.539021 89.888206,28.253159 90.155502,25.967297 
z"/>
<path fill="#CCD9DE" opacity="1.000000" stroke="none" 
	d="
M71.045059,28.003643 
	C69.568619,28.427279 68.092186,28.850916 66.301323,29.168135 
	C65.621674,26.976181 65.187141,24.899889 64.907372,22.802950 
	C64.480850,19.605927 66.115105,18.624716 69.503769,19.101530 
	C69.969620,19.030746 69.925507,19.124386 69.925507,19.124386 
	C70.089172,19.981667 70.252846,20.838947 70.674652,22.300779 
	C70.991371,23.935013 71.049950,24.964695 71.068848,26.327837 
	C71.034462,27.108747 71.039757,27.556194 71.045059,28.003643 
z"/>
<path fill="#DEE6E4" opacity="1.000000" stroke="none" 
	d="
M90.242622,25.683250 
	C89.888206,28.253159 89.620903,30.539021 89.353607,32.824883 
	C88.930779,32.787556 88.507957,32.750233 88.085129,32.712906 
	C88.085129,30.430155 88.085129,28.147404 88.100601,25.446625 
	C87.733994,23.788420 87.351906,22.548239 86.715469,20.482498 
	C86.609833,20.634012 87.299789,19.644402 87.992500,18.327515 
	C87.896324,16.779562 87.797401,15.558885 87.698471,14.338208 
	C88.064232,14.225873 88.429985,14.113537 88.795746,14.001202 
	C89.555016,16.899458 90.314285,19.797714 91.402802,22.870647 
	C91.264610,23.829952 90.797180,24.614578 90.242622,25.683250 
z"/>
<path fill="#85ACCA" opacity="1.000000" stroke="none" 
	d="
M71.108536,25.994375 
	C71.049950,24.964695 70.991371,23.935013 70.920609,22.521908 
	C71.396362,21.778574 71.884300,21.418663 73.018585,21.029640 
	C74.107933,20.998806 74.550941,20.997084 74.993942,20.995361 
	C76.295609,23.333849 77.328384,25.617828 73.232925,26.752754 
	C72.158730,26.352795 71.633629,26.173586 71.108536,25.994375 
z"/>
<path fill="#89AFCB" opacity="1.000000" stroke="none" 
	d="
M81.775024,17.193504 
	C82.442963,17.001328 82.885925,17.001863 83.660950,17.004128 
	C83.402145,17.614557 82.811272,18.223255 82.220398,18.831951 
	C81.996956,18.350039 81.773506,17.868128 81.775024,17.193504 
z"/>
<path fill="#89AFCB" opacity="1.000000" stroke="none" 
	d="
M71.068848,26.327837 
	C71.633629,26.173586 72.158730,26.352795 72.846176,26.766560 
	C73.008530,27.001118 73.003830,27.499815 73.001457,27.749146 
	C72.564575,27.999130 72.130058,27.999786 71.370300,28.002043 
	C71.039757,27.556194 71.034462,27.108747 71.068848,26.327837 
z"/>
<path fill="#89AFCB" opacity="1.000000" stroke="none" 
	d="
M74.954102,20.700865 
	C74.550941,20.997084 74.107933,20.998806 73.332611,21.000187 
	C73.234062,20.489195 73.467827,19.978546 73.701599,19.467897 
	C74.105820,19.780722 74.510048,20.093546 74.954102,20.700865 
z"/>
<path fill="#89AFCB" opacity="1.000000" stroke="none" 
	d="
M69.922623,19.052462 
	C69.984558,19.038940 70.093483,19.003704 70.063957,19.046429 
	C69.925507,19.124386 69.969620,19.030746 69.922623,19.052462 
z"/>
<path fill="#FBFAED" opacity="1.000000" stroke="none" 
	d="
M82.563202,56.667149 
	C82.274918,56.690842 82.171577,56.577385 82.068245,56.463928 
	C82.294884,56.485954 82.521515,56.507977 82.563202,56.667149 
z"/>
<path fill="#FBFAED" opacity="1.000000" stroke="none" 
	d="
M56.614876,51.916756 
	C56.185772,50.572632 56.117195,49.206814 56.279427,47.290268 
	C56.755466,46.526535 56.905083,46.259869 56.959076,45.939545 
	C56.959076,45.939545 56.961555,45.978928 56.948509,45.961971 
	C58.305870,46.303120 59.676270,46.661224 61.046673,47.019325 
	C61.291122,47.465229 61.535576,47.911129 61.780025,48.357033 
	C60.178486,49.536377 58.576942,50.715721 56.614876,51.916756 
z"/>
<path fill="#CAC9C1" opacity="1.000000" stroke="none" 
	d="
M56.657513,45.947159 
	C56.905083,46.259869 56.755466,46.526535 56.324669,46.880562 
	C56.211391,46.665981 56.283672,46.310379 56.657513,45.947159 
z"/>
</svg>